<svg width="76" height="76" viewBox="0 0 76 76" fill="none" xmlns="http://www.w3.org/2000/svg">
<path d="M58.096 33.3634V46.6796C58.096 46.6796 58.096 49.3703 57.3632 52.7884C56.6304 55.9643 55.042 60.3626 51.4993 64.0274C47.1045 68.5477 40.6263 70.8689 32.3183 70.8689C24.1332 70.8689 17.7805 68.5477 13.2602 64.0274C9.59547 60.3626 8.00707 55.7203 7.2743 52.5471C6.41866 49.0044 6.54154 46.3164 6.54154 46.1944V33.2414C17.4137 33.3634 58.096 33.3634 58.096 33.3634ZM58.096 28.3542H6.54154C3.73157 28.3542 1.53238 30.5534 1.53238 33.3634V46.189C1.53238 46.5558 1.53238 49.7317 2.38712 53.7633C3.24276 57.5509 5.31907 63.1708 9.71745 67.6912C15.0925 73.1882 22.6677 75.9982 32.3192 75.9982C41.9707 75.9982 49.6661 73.19 55.0385 67.693C59.4332 63.1726 61.3912 57.7966 62.2459 54.1319C63.2235 50.2224 63.1015 47.2904 63.1015 46.8016V33.4872C63.1015 30.6772 60.9024 28.356 58.0924 28.356L58.096 28.3542Z" fill="#BCC6CA"/>
<path d="M62.4943 36.9061H59.6844V41.918H62.4943C66.281 41.918 69.4578 41.5511 69.4578 45.3387V52.0529C69.4578 55.8405 66.281 59.0164 62.4943 59.0164H58.3399C57.852 60.6048 57.2412 62.3152 56.3856 64.0255H62.4943C69.091 64.0255 74.4661 58.6505 74.4661 52.0529V45.336C74.4661 38.7385 72.3898 36.9061 62.4943 36.9061ZM18.6362 25.4223C17.6586 25.4223 16.8029 24.9335 16.437 24.0769C16.2912 23.7884 16.204 23.4739 16.1804 23.1514C16.1568 22.829 16.1973 22.5051 16.2995 22.1985C16.4018 21.8918 16.5637 21.6084 16.776 21.3646C16.9883 21.1208 17.2468 20.9215 17.5366 20.7782C17.9025 20.5342 19.247 19.6786 19.3689 18.7018C19.4909 17.7251 18.6362 16.3798 17.0478 15.0362C14.1179 12.4711 12.7741 9.78342 13.0162 6.97315C13.3822 2.93712 17.0478 0.620437 17.411 0.376482C18.6335 -0.357179 20.1017 0.00965135 20.8318 1.23122C21.5618 2.45279 21.1986 3.92191 19.977 4.65198C19.977 4.65198 18.0218 5.87355 17.8998 7.46195C17.7778 8.92838 19.1214 10.3939 20.221 11.3715C23.2758 14.0586 24.6197 16.7463 24.2525 19.4346C23.7637 23.2213 20.099 25.1747 19.7322 25.2985C19.3689 25.3003 19.0021 25.4223 18.6362 25.4223ZM33.782 26.155C32.8044 26.155 31.9497 25.6671 31.5829 24.8097C31.4372 24.5211 31.3501 24.2066 31.3266 23.8842C31.303 23.5618 31.3435 23.238 31.4458 22.9313C31.548 22.6247 31.7099 22.3413 31.9221 22.0975C32.1344 21.8537 32.3928 21.6544 32.6824 21.5109C33.0493 21.267 34.3928 20.4122 34.5148 19.4346C34.6368 18.457 33.782 17.1134 32.1936 15.769C29.2638 13.2039 27.9199 10.5165 28.1621 7.70681C28.5289 3.67078 32.1936 1.3532 32.5569 1.10924C33.7785 0.376482 35.2476 0.742415 35.9776 1.96488C36.7077 3.18735 36.3436 4.65557 35.122 5.38474C35.122 5.38474 33.1677 6.60721 33.0457 8.19472C32.9228 9.66114 34.2673 11.1267 35.3669 12.1043C38.4205 14.795 39.7658 17.4827 39.4029 20.1674C38.9141 23.955 35.2485 25.9075 34.8825 26.0313C34.5175 26.0331 34.1507 26.155 33.782 26.155ZM46.979 26.155C46.0013 26.155 45.1466 25.6671 44.7798 24.8097C44.6341 24.5211 44.547 24.2066 44.5235 23.8842C44.4999 23.5618 44.5405 23.238 44.6427 22.9313C44.7449 22.6247 44.9068 22.3413 45.119 22.0975C45.3313 21.8537 45.5897 21.6544 45.8794 21.5109C46.2462 21.267 47.5897 20.4122 47.7117 19.4346C47.8337 18.457 46.979 17.1134 45.3906 15.769C42.4607 13.2039 41.1168 10.5165 41.359 7.70681C41.7258 3.67078 45.3906 1.3532 45.7538 1.10924C46.9754 0.376482 48.4445 0.742415 49.1746 1.96488C49.9046 3.18735 49.5405 4.65557 48.3189 5.38474C48.3189 5.38474 46.3646 6.60721 46.2417 8.19472C46.1197 9.66114 47.4642 11.1267 48.5629 12.1043C51.6177 14.795 52.9615 17.4827 52.5944 20.1674C52.1065 23.955 48.4409 25.9075 48.075 26.0313C47.7117 26.0331 47.3449 26.155 46.979 26.155Z" fill="#BCC6CA"/>
</svg>
