<svg width="25" height="25" viewBox="0 0 25 25" fill="none" xmlns="http://www.w3.org/2000/svg">
<g clip-path="url(#clip0_81_121)">
<path d="M9.33399 9.89643V19.2714C9.33628 19.3409 9.32417 19.4101 9.29841 19.4746C9.27265 19.5392 9.23381 19.5977 9.18433 19.6465C9.13484 19.6954 9.07579 19.7334 9.01089 19.7583C8.94598 19.7831 8.87663 19.7943 8.8072 19.7911H7.75006C7.68047 19.7943 7.61096 19.7831 7.54593 19.7581C7.4809 19.7332 7.42176 19.695 7.37225 19.6459C7.32274 19.5969 7.28394 19.5382 7.25829 19.4734C7.23265 19.4086 7.22073 19.3393 7.22327 19.2696V9.89464C7.22098 9.82517 7.23309 9.75598 7.25885 9.69142C7.2846 9.62686 7.32344 9.56834 7.37293 9.51952C7.42241 9.47071 7.48146 9.43267 7.54637 9.4078C7.61127 9.38293 7.68063 9.37176 7.75006 9.375H8.80363C8.87322 9.37174 8.94272 9.38296 9.00775 9.40794C9.07278 9.43292 9.13192 9.47112 9.18143 9.52013C9.23094 9.56913 9.26975 9.62788 9.29539 9.69265C9.32104 9.75742 9.33296 9.82681 9.33041 9.89643H9.3322H9.33399ZM13.5554 9.89643V19.2714C13.5577 19.3411 13.5456 19.4104 13.5197 19.4751C13.4938 19.5398 13.4548 19.5984 13.4052 19.6472C13.3555 19.6961 13.2962 19.7341 13.2311 19.7588C13.166 19.7836 13.0964 19.7946 13.0268 19.7911H11.9733C11.9037 19.7943 11.8342 19.7831 11.7691 19.7581C11.7041 19.7332 11.645 19.695 11.5955 19.6459C11.546 19.5969 11.5072 19.5382 11.4815 19.4734C11.4559 19.4086 11.4439 19.3393 11.4465 19.2696V9.89464C11.4442 9.82517 11.4563 9.75598 11.4821 9.69142C11.5078 9.62686 11.5467 9.56834 11.5961 9.51952C11.6456 9.47071 11.7047 9.43267 11.7696 9.4078C11.8345 9.38293 11.9038 9.37176 11.9733 9.375H13.0268C13.0964 9.37174 13.1659 9.38296 13.231 9.40794C13.296 9.43292 13.3551 9.47112 13.4046 9.52013C13.4542 9.56913 13.493 9.62788 13.5186 9.69265C13.5443 9.75742 13.5562 9.82681 13.5536 9.89643H13.5554ZM17.7768 9.89643V19.2714C17.7792 19.3411 17.767 19.4104 17.7411 19.4751C17.7153 19.5398 17.6763 19.5984 17.6266 19.6472C17.5769 19.6961 17.5176 19.7341 17.4525 19.7588C17.3874 19.7836 17.3179 19.7946 17.2483 19.7911H16.1947C16.1251 19.7943 16.0556 19.7831 15.9906 19.7581C15.9255 19.7332 15.8664 19.695 15.8169 19.6459C15.7674 19.5969 15.7286 19.5382 15.7029 19.4734C15.6773 19.4086 15.6654 19.3393 15.6679 19.2696L15.6661 9.89464C15.6638 9.82517 15.6759 9.75598 15.7017 9.69142C15.7275 9.62686 15.7663 9.56834 15.8158 9.51952C15.8653 9.47071 15.9243 9.43267 15.9892 9.4078C16.0541 9.38293 16.1235 9.37176 16.1929 9.375H17.2483C17.3179 9.37174 17.3874 9.38296 17.4524 9.40794C17.5174 9.43292 17.5766 9.47112 17.6261 9.52013C17.6756 9.56913 17.7144 9.62788 17.74 9.69265C17.7657 9.75742 17.7776 9.82681 17.7751 9.89643H17.7768ZM19.8858 21.6804V6.25H5.11434V21.6786C5.11009 22.0738 5.23415 22.4598 5.46792 22.7786C5.55006 22.8714 5.60899 22.9161 5.64113 22.9161H19.359C19.3911 22.9161 19.4483 22.8714 19.5322 22.7786C19.7662 22.4605 19.8909 22.0752 19.8876 21.6804H19.8858ZM8.8072 4.16607H16.1929L15.4018 2.2625C15.3336 2.17042 15.2338 2.10681 15.1215 2.08393H9.8947C9.78241 2.10681 9.68256 2.17042 9.61434 2.2625L8.8072 4.16607ZM24.1072 4.6875V5.72857C24.1097 5.79819 24.0978 5.86758 24.0722 5.93235C24.0465 5.99712 24.0077 6.05587 23.9582 6.10487C23.9087 6.15388 23.8496 6.19208 23.7845 6.21706C23.7195 6.24204 23.65 6.25326 23.5804 6.25H21.9965V21.6786C21.9965 22.5804 21.7393 23.3571 21.2215 24.0161C20.7036 24.6714 20.084 25 19.359 25H5.64113C4.91613 25 4.2947 24.6821 3.77863 24.0482C3.26077 23.4125 3.00363 22.6446 3.00363 21.7446V6.25H1.4197C1.35011 6.25326 1.28061 6.24204 1.21558 6.21706C1.15055 6.19208 1.09141 6.15388 1.0419 6.10487C0.992385 6.05587 0.953581 5.99712 0.927937 5.93235C0.902294 5.86758 0.890368 5.79819 0.892915 5.72857V4.6875C0.890368 4.61788 0.902294 4.5485 0.927937 4.48372C0.953581 4.41895 0.992385 4.36021 1.0419 4.3112C1.09141 4.26219 1.15055 4.22399 1.21558 4.19901C1.28061 4.17403 1.35011 4.16281 1.4197 4.16607H6.51434L7.6697 1.44821C7.83399 1.04643 8.13041 0.705357 8.55899 0.423214C8.98756 0.141071 9.42327 0 9.86256 0H15.1376C15.5768 0 16.0126 0.141071 16.4411 0.423214C16.8697 0.705357 17.1661 1.04821 17.3304 1.44821L18.4858 4.16607H23.5804C23.65 4.16281 23.7195 4.17403 23.7845 4.19901C23.8496 4.22399 23.9087 4.26219 23.9582 4.3112C24.0077 4.36021 24.0465 4.41895 24.0722 4.48372C24.0978 4.5485 24.1097 4.61788 24.1072 4.6875Z" fill="#CFDBE0"/>
</g>
<defs>
<clipPath id="clip0_81_121">
<rect width="25" height="25" fill="white"/>
</clipPath>
</defs>
</svg>
