<svg width="24" height="24" viewBox="0 0 24 24" fill="none" xmlns="http://www.w3.org/2000/svg">
<path d="M15.18 24H8.82004C8.33252 23.9782 7.87361 23.7637 7.54418 23.4037C7.21474 23.0436 7.04176 22.5675 7.06324 22.08V15.4728C7.06235 15.468 7.06004 15.4637 7.05662 15.4602C7.05319 15.4568 7.04881 15.4545 7.04404 15.4536H3.73684C3.47369 15.4722 3.21138 15.4073 2.98728 15.2681C2.76319 15.1289 2.58875 14.9226 2.48884 14.6784C2.39257 14.4203 2.37238 14.1399 2.43066 13.8706C2.48894 13.6013 2.62324 13.3544 2.81764 13.1592L10.7592 3.9024C10.9089 3.71746 11.0979 3.56831 11.3126 3.46584C11.5273 3.36338 11.7622 3.31021 12 3.31021C12.2379 3.31021 12.4728 3.36338 12.6875 3.46584C12.9022 3.56831 13.0912 3.71746 13.2408 3.9024L21.1824 13.1592C21.3768 13.3544 21.5111 13.6013 21.5694 13.8706C21.6277 14.1399 21.6075 14.4203 21.5112 14.6784C21.4113 14.9226 21.2369 15.1289 21.0128 15.2681C20.7887 15.4073 20.5264 15.4722 20.2632 15.4536H16.956C16.9513 15.4545 16.9469 15.4568 16.9435 15.4602C16.94 15.4637 16.9377 15.468 16.9368 15.4728V22.08C16.9583 22.5675 16.7853 23.0436 16.4559 23.4037C16.1265 23.7637 15.6676 23.9782 15.18 24ZM4.84564 13.5744H7.04404C7.28554 13.5849 7.5226 13.6429 7.74166 13.7451C7.96071 13.8473 8.15746 13.9917 8.32064 14.17C8.48382 14.3484 8.61023 14.5572 8.69263 14.7844C8.77502 15.0117 8.8118 15.2529 8.80084 15.4944V22.08C8.8016 22.0851 8.80381 22.0898 8.80722 22.0937C8.81063 22.0975 8.81509 22.1003 8.82004 22.1016H15.18C15.185 22.1003 15.1894 22.0975 15.1929 22.0937C15.1963 22.0898 15.1985 22.0851 15.1992 22.08V15.4728C15.1883 15.2313 15.2251 14.9901 15.3075 14.7628C15.3899 14.5356 15.5163 14.3268 15.6794 14.1484C15.8426 13.9701 16.0394 13.8257 16.2584 13.7235C16.4775 13.6213 16.7145 13.5633 16.956 13.5528H19.1544L12 5.232L4.84564 13.5744ZM20.544 1.8888H3.45604C3.21981 1.86815 2.99989 1.75972 2.83967 1.58489C2.67945 1.41006 2.59058 1.18154 2.59058 0.9444C2.59058 0.707263 2.67945 0.478737 2.83967 0.303909C2.99989 0.129081 3.21981 0.0206466 3.45604 0L20.544 0C20.7803 0.0206466 21.0002 0.129081 21.1604 0.303909C21.3206 0.478737 21.4095 0.707263 21.4095 0.9444C21.4095 1.18154 21.3206 1.41006 21.1604 1.58489C21.0002 1.75972 20.7803 1.86815 20.544 1.8888Z" fill="#AFB8BB"/>
</svg>
